<?xml version="1.0" standalone="no"?>
<!DOCTYPE svg PUBLIC "-//W3C//DTD SVG 1.1//EN" "http://www.w3.org/Graphics/SVG/1.1/DTD/svg11.dtd" >
<svg xmlns="http://www.w3.org/2000/svg">
<metadata></metadata>
<defs>
<font id="futurabold" horiz-adv-x="1404" >
<font-face units-per-em="2048" ascent="1638" descent="-410" />
<missing-glyph horiz-adv-x="702" />
<glyph horiz-adv-x="2048" />
<glyph horiz-adv-x="2048" />
<glyph unicode="&#xd;" horiz-adv-x="2048" />
<glyph unicode=" "  horiz-adv-x="702" />
<glyph unicode="&#x09;" horiz-adv-x="702" />
<glyph unicode="&#xa0;" horiz-adv-x="702" />
<glyph unicode="!" horiz-adv-x="786" d="M154 199q0 -99 69 -169q69 -71 170 -71t170 71q70 72 70 169q0 100 -70 170q-69 69 -170 69t-170 -69t-69 -170zM201 524h387v1020h-387v-1020z" />
<glyph unicode="&#x22;" horiz-adv-x="1024" d="M96 1544l56 -678h237l55 678h-348zM580 1544l55 -678h237l56 678h-348z" />
<glyph unicode="#" d="M139 354h187l-68 -354h217l68 354h207l-68 -354h217l68 354h241v232h-192l49 254h201v231h-164l80 416h-215l-80 -416h-207l80 416h-217l-80 -416h-240v-231h197l-49 -254h-232v-232zM588 586l49 254h213l-53 -254h-209z" />
<glyph unicode="$" d="M139 178q45 -42 106 -75q60 -32 136 -60q135 -51 264 -51v-244h191v256q208 51 319 172t111 328q0 101 -35 176q-35 74 -95 122q-55 44 -134 82q-64 31 -181 68q-1 0 -3 1t-3 1q-83 28 -140 64q-54 34 -54 94q0 57 50 86t124 29q69 0 137 -27q67 -27 125 -74l151 297 q-79 52 -173 80q-95 29 -199 39v248h-191v-248q-92 -6 -169 -47q-75 -40 -133 -107q-55 -64 -86 -152q-30 -86 -30 -175q0 -91 27 -157q27 -65 72 -112q44 -45 99 -76q52 -29 124 -57q16 -7 100 -32q116 -37 169 -69q52 -31 52 -93q0 -70 -59 -110t-133 -40q-89 0 -193 51 q-101 50 -178 121z" />
<glyph unicode="%" horiz-adv-x="1996" d="M39 1190q0 -180 119 -281q118 -100 303 -100t303 100q119 101 119 281q0 177 -121 276q-122 99 -301 99t-301 -99q-121 -99 -121 -276zM287 1186q0 72 51 123t123 51t123 -51t51 -123t-51 -122q-52 -50 -123 -50t-123 50q-51 50 -51 122zM449 0h200l897 1544h-200z M1114 360q0 -179 119 -280q118 -100 303 -100t303 100q119 101 119 280q0 178 -121 277q-120 98 -301 98t-301 -98q-121 -99 -121 -277zM1362 356q0 72 51 123t123 51t123 -51t51 -123t-51 -122q-52 -50 -123 -50t-123 50q-51 49 -51 122z" />
<glyph unicode="&#x26;" horiz-adv-x="1736" d="M78 401q0 -102 39 -185q40 -85 107 -140q69 -57 159 -87t190 -30q132 0 270 50q134 49 259 134l133 -143h502l-346 365l18 18l195 209l-228 217q-73 -103 -202 -219l-195 205q137 69 212 153t75 217q0 96 -40 175q-41 81 -109 134q-69 54 -155 82q-89 29 -180 29 q-93 0 -180 -29q-88 -29 -153 -83q-68 -56 -107 -136q-39 -79 -39 -176q0 -76 26 -133q26 -58 74 -121q7 -7 11 -14l32 -45l-36 -17q-164 -73 -247 -169q-85 -98 -85 -261zM494 461q0 57 40 100q42 46 105 84l244 -262q-48 -27 -107 -46q-56 -18 -108 -18q-68 0 -121 38 t-53 104zM684 1186q0 55 37 91t92 36q59 0 97 -42q38 -43 38 -102q0 -56 -41 -105t-102 -83l-12 12q-52 61 -80 104q-29 44 -29 89z" />
<glyph unicode="'" horiz-adv-x="512" d="M82 1544l55 -678h238l55 678h-348z" />
<glyph unicode="(" horiz-adv-x="720" d="M100 586q0 -136 18 -281q18 -149 52 -289q33 -139 92 -275q57 -133 135 -233l224 127q-60 90 -105 204q-46 117 -74 240q-27 121 -43 248q-14 113 -14 234q0 252 57 495q57 242 179 435l-224 127q-74 -101 -129 -226q-55 -124 -93 -265q-38 -142 -56 -276 q-19 -146 -19 -265z" />
<glyph unicode=")" horiz-adv-x="720" d="M100 -365l224 -127q77 101 135 233t93 275q35 141 52 290q17 148 17 280q0 119 -19 265q-17 133 -56 277q-38 142 -93 265q-55 125 -129 225l-224 -127q122 -193 179 -435q57 -243 57 -495q0 -120 -14 -235q-15 -127 -43 -247q-28 -123 -74 -239t-105 -205z" />
<glyph unicode="*" horiz-adv-x="989" d="M139 1288l191 -104l-185 -103l93 -155l174 110l-13 -205h185l-9 207l181 -116l92 153l-193 107l195 102l-92 156l-183 -115l11 219h-185l11 -213l-179 113z" />
<glyph unicode="+" d="M178 373h371v-373h307v373h371v307h-371v371h-307v-371h-371v-307z" />
<glyph unicode="," horiz-adv-x="702" d="M45 -289h240l377 680h-351z" />
<glyph unicode="-" horiz-adv-x="802" d="M109 504h585v307h-585v-307z" />
<glyph unicode="." horiz-adv-x="702" d="M113 199q0 -99 69 -169q69 -71 170 -71t170 71q70 72 70 169q0 100 -70 170q-69 69 -170 69t-170 -69t-69 -170z" />
<glyph unicode="/" horiz-adv-x="1185" d="M55 -190h293l782 1890h-292z" />
<glyph unicode="0" d="M47 772q0 -156 39 -304t120 -268t206 -191q124 -70 290 -70q167 0 291 70q125 71 206 191t120 268q39 149 39 304q0 156 -39 304q-39 149 -120 269q-80 119 -206 190q-125 71 -291 71q-165 0 -290 -71q-126 -71 -206 -190q-81 -120 -120 -269q-39 -148 -39 -304zM446 774 q0 60 13 146q12 77 41 156q28 76 80 126q50 49 122 49q75 0 124 -49q51 -51 79 -126q29 -79 41 -156q12 -79 12 -146q0 -66 -12 -145q-12 -78 -41 -158q-28 -77 -79 -128q-50 -50 -124 -50q-70 0 -122 50q-51 50 -80 128q-29 80 -41 158q-13 86 -13 145z" />
<glyph unicode="1" d="M330 1204h221v-1204h401v1544h-622v-340z" />
<glyph unicode="2" d="M68 0h1241v340h-506l239 223q131 119 190 228q60 111 60 266q0 123 -46 224t-129 175q-84 75 -191 112q-109 38 -230 38q-271 0 -431 -163q-161 -164 -171 -431h443q-7 40 -7 65q0 83 45 135q46 54 123 54q76 0 126 -62t50 -139q0 -97 -50 -197q-48 -97 -126 -182z" />
<glyph unicode="3" d="M70 502q0 -100 51 -207q50 -103 125 -182q91 -93 206 -133q117 -41 255 -41q119 0 224 32q106 32 192 99q85 65 134 161q50 97 50 220q0 126 -68 242q-69 117 -184 147q81 46 121 132q41 88 41 185q0 211 -140 330t-354 119q-244 0 -393 -133q-156 -140 -180 -373h372 q0 78 45 128t119 50q69 0 113 -43q45 -44 45 -113q0 -78 -49 -124t-127 -46h-41v-268q45 12 69 12q87 0 150 -60t63 -147q0 -92 -60 -149t-155 -57t-154 62q-61 64 -61 157h-409z" />
<glyph unicode="4" d="M33 319h749v-319h373v319h186v308h-186v917h-526l-596 -969v-256zM418 627l360 594h4v-594h-364z" />
<glyph unicode="5" horiz-adv-x="1411" d="M117 78q112 -72 238 -105q129 -34 266 -34q131 0 246 29q117 30 204 100q98 80 148 187q51 109 51 230q0 113 -37 214q-38 104 -106 179q-68 76 -161 119q-92 43 -202 43q-1 0 -21 -2h-20l-127 -10l27 176h534v340h-803l-135 -837q135 63 295 63q62 0 122 -15 q59 -15 109 -48q49 -33 78 -83t29 -118q0 -98 -74 -163q-73 -64 -172 -64q-114 0 -226 47q-113 47 -204 131z" />
<glyph unicode="6" d="M47 496q0 -121 56 -233q57 -113 151 -191q85 -68 202 -101q115 -32 238 -32q136 0 254 38q122 39 213 114q94 77 145 184q52 108 52 247q0 105 -35 204q-35 98 -100 174q-67 78 -158 121q-93 44 -203 44q-107 0 -215 -47l-4 4l438 522h-454l-332 -434 q-112 -145 -180 -302t-68 -312zM438 510q0 104 75 178q76 74 179 74q104 0 176 -74t72 -178q0 -106 -72 -181t-176 -75t-179 75t-75 181z" />
<glyph unicode="7" d="M86 0h440l887 1544h-1268v-340h646z" />
<glyph unicode="8" d="M113 406q0 -116 52 -204q54 -91 139 -148q87 -58 192 -87q103 -28 206 -28q106 0 209 28q106 29 191 87t138 148q52 88 52 204q0 148 -82 252q-85 108 -225 153v4q109 38 176 133q68 97 68 217q0 108 -43 190q-44 83 -119 139q-77 57 -170 84q-98 28 -195 28 q-96 0 -194 -28q-92 -26 -170 -83q-75 -55 -119 -139q-43 -83 -43 -191q0 -121 69 -217t175 -133v-4q-140 -45 -225 -153q-82 -104 -82 -252zM518 457q0 78 53 136q53 56 131 56q80 0 132 -56q53 -58 53 -136q0 -77 -53 -133t-132 -56q-76 0 -130 56t-54 133zM532 1153 q0 70 51 123q49 51 119 51q72 0 121 -51q49 -50 49 -123t-49 -123q-49 -51 -121 -51q-70 0 -119 51q-51 53 -51 123z" />
<glyph unicode="9" d="M47 1022q0 -105 35 -205q35 -99 100 -175q67 -78 158 -121q93 -44 203 -44q109 0 217 47l4 -4l-440 -520h456l330 432q113 151 180 304q68 156 68 311q0 123 -56 235q-58 116 -151 191q-83 67 -201 100q-117 33 -239 33q-131 0 -253 -38q-120 -38 -213 -114 q-95 -78 -146 -185q-52 -108 -52 -247zM465 1034q0 106 71 180t177 74q105 0 181 -74q75 -74 75 -180t-75 -180q-76 -74 -181 -74q-106 0 -177 74t-71 180z" />
<glyph unicode=":" horiz-adv-x="702" d="M113 199q0 -99 69 -169q69 -71 170 -71t170 71q70 72 70 169q0 100 -70 170q-69 69 -170 69t-170 -69t-69 -170zM113 889q0 -99 69 -169q69 -71 170 -71t170 71q70 72 70 169q0 100 -70 170q-69 69 -170 69t-170 -69t-69 -170z" />
<glyph unicode=";" horiz-adv-x="702" d="M16 -289h240l377 680h-350zM207 889q0 -99 69 -169q69 -71 170 -71t170 71q70 72 70 169q0 100 -70 170q-69 69 -170 69t-170 -69t-69 -170z" />
<glyph unicode="&#x3c;" d="M203 403l1001 -372v307l-561 186v4l561 187v307l-1001 -373v-246z" />
<glyph unicode="=" d="M178 127h1049v307h-1049v-307zM178 618h1049v308h-1049v-308z" />
<glyph unicode="&#x3e;" d="M203 31l1001 372v246l-1001 373v-307l561 -187v-4l-561 -186v-307z" />
<glyph unicode="?" horiz-adv-x="1218" d="M31 1104h407q0 69 38 113q37 43 106 43q62 0 106 -46q43 -44 43 -108q0 -95 -83 -149q-82 -54 -181 -54q-42 0 -86 10v-397h375v146q168 54 269 164t101 278q0 98 -48 192t-128 162q-74 64 -167 95q-94 32 -191 32q-109 0 -211 -32q-100 -31 -179 -94q-79 -62 -125 -152 q-46 -89 -46 -203zM336 199q0 -97 70 -169q69 -71 169 -71q101 0 170 71q70 72 70 169q0 100 -70 170q-69 69 -170 69q-100 0 -169 -69q-70 -70 -70 -170z" />
<glyph unicode="@" horiz-adv-x="1515" d="M10 772q0 -170 62 -321q62 -150 171 -261t255 -171t307 -60q151 0 291 39q139 39 260 100l-168 135q-54 -33 -152 -58q-92 -23 -215 -23q-132 0 -243 43q-117 45 -197 124q-85 83 -131 198q-47 117 -47 255q0 133 42 247q42 115 121 198q80 84 186 130q107 46 234 46 q114 0 215 -33q102 -34 176 -97q73 -62 117 -159q43 -93 43 -213q0 -3 -2 -17v-18q-5 -69 -24 -126q-21 -63 -51 -114q-29 -50 -65 -81t-60 -35q-21 0 -30 12t-9 35t12 74q0 4 2 14l102 532h-194l-21 -108q-88 127 -252 127q-91 0 -170 -41q-75 -39 -133 -111 q-54 -68 -85 -158q-29 -86 -29 -184q0 -78 27 -147t77 -122q49 -52 112 -82t128 -30q86 0 151 34q67 35 111 85q12 -48 48 -83t79 -36q83 0 166 45q80 43 149 136q61 82 94 194q33 113 33 242q0 140 -60 262q-59 119 -169 217q-101 91 -222 134q-123 44 -259 44 q-164 0 -305 -61q-142 -61 -250 -172t-168 -259q-60 -149 -60 -321zM573 725q0 88 59 162t142 74q68 0 109 -47t41 -119v-17q-2 -10 -2 -16q-11 -92 -59 -159q-48 -66 -134 -66q-72 0 -114 54t-42 134z" />
<glyph unicode="A" horiz-adv-x="1599" d="M-8 0h426l106 268h553l101 -268h428l-582 1544h-438zM635 575l166 492h4l164 -492h-334z" />
<glyph unicode="B" horiz-adv-x="1386" d="M131 0h619q111 0 212 23q100 23 177 73t124 134q46 82 46 200q0 168 -78 270t-238 123v4q89 44 130 125q40 79 40 191q0 211 -120 306q-121 95 -338 95h-574v-1544zM532 307v332h41q77 0 140 -5q53 -4 100 -22q44 -17 67 -50t23 -91q0 -57 -27 -91q-26 -34 -74 -49 q-49 -16 -96 -20q-44 -4 -122 -4h-52zM532 938v299h29q56 0 89 -4q39 -5 72 -19t53 -45t20 -82q0 -46 -18 -76t-49 -46q-34 -18 -69 -22q-42 -5 -81 -5h-46z" />
<glyph unicode="C" horiz-adv-x="1351" d="M53 770q0 -176 62 -324t186 -260q123 -109 270 -168t310 -59q81 0 152 15q65 14 192 53l10 4v481q-62 -75 -156 -120q-93 -44 -190 -44q-187 0 -302 118q-116 119 -116 302q0 90 30 168t85 136t131 91t166 33q102 0 198 -44q94 -43 154 -126v481q-189 78 -367 78 q-161 0 -317 -66q-154 -65 -270 -184q-110 -111 -169 -260q-59 -148 -59 -305z" />
<glyph unicode="D" horiz-adv-x="1540" d="M131 0h569q159 0 301 59q144 60 252 165t170 247t62 301q0 158 -61 301q-60 140 -169 248q-109 107 -251 165q-143 58 -304 58h-569v-1544zM532 340v864h95q197 0 319 -114q121 -114 121 -318q0 -107 -35 -191q-36 -86 -96 -137q-62 -52 -141 -78q-81 -26 -172 -26h-91z " />
<glyph unicode="E" horiz-adv-x="1126" d="M131 0h879v340h-478v266h453v340h-453v258h478v340h-879v-1544z" />
<glyph unicode="F" horiz-adv-x="1110" d="M131 0h401v606h441v340h-441v258h486v340h-887v-1544z" />
<glyph unicode="G" horiz-adv-x="1724" d="M53 764q0 -181 60 -331q61 -153 170 -259q112 -109 262 -167t332 -58q199 0 362 75t274 228q94 130 124 270q29 137 34 340h-797v-315h328q-12 -130 -100 -199t-223 -69q-99 0 -173 39q-76 40 -129 110q-51 67 -79 157q-27 87 -27 177t27 177q28 90 77 158q51 71 127 111 q77 41 170 41q121 0 205 -65q85 -66 129 -180l381 159q-101 218 -276 324q-179 108 -420 108q-186 0 -339 -58q-156 -59 -266 -169q-113 -113 -172 -264q-61 -156 -61 -340z" />
<glyph unicode="H" horiz-adv-x="1644" d="M131 0h401v633h580v-633h401v1544h-401v-596h-580v596h-401v-1544z" />
<glyph unicode="I" horiz-adv-x="663" d="M131 0h401v1544h-401v-1544z" />
<glyph unicode="J" horiz-adv-x="1001" d="M-31 186q72 -108 172 -168q99 -59 226 -59q251 0 381 146q131 148 131 397v1042h-402v-1018q0 -51 -3 -87q-3 -37 -13 -68q-11 -33 -35 -53q-23 -19 -64 -19q-33 0 -77 38q-43 37 -84 93z" />
<glyph unicode="K" horiz-adv-x="1552" d="M131 0h401v670h5l518 -670h520l-670 813l615 731h-498l-485 -637h-5v637h-401v-1544z" />
<glyph unicode="L" horiz-adv-x="1013" d="M131 0h883v340h-482v1204h-401v-1544z" />
<glyph unicode="M" horiz-adv-x="2013" d="M39 0h399l129 889h4l355 -889h159l371 889h4l113 -889h401l-233 1544h-400l-331 -825l-314 825h-395z" />
<glyph unicode="N" horiz-adv-x="1804" d="M131 0h401v946h5l735 -946h401v1544h-401v-944h-4l-736 944h-401v-1544z" />
<glyph unicode="O" horiz-adv-x="1816" d="M53 801q0 -183 64 -341t178 -272t272 -177q155 -62 340 -62t340 62q162 65 273 176q115 115 178 272t63 342q0 171 -68 316q-69 146 -190 254t-275 166q-153 58 -321 58q-167 0 -320 -58q-155 -59 -276 -166q-120 -106 -189 -254q-69 -147 -69 -316zM471 799q0 79 34 151 q35 75 95 132q63 60 140 92t167 32q91 0 168 -32q79 -33 140 -91t95 -132q33 -72 33 -152q0 -103 -33 -183q-34 -83 -95 -147q-59 -62 -140 -97q-78 -34 -168 -34t-168 34q-81 35 -140 97t-94 147q-34 83 -34 183z" />
<glyph unicode="P" horiz-adv-x="1353" d="M131 0h401v512h228q267 0 407 128t140 396q0 255 -151 382q-150 126 -411 126h-614v-1544zM532 836v385h68q80 0 121 -4q46 -4 85 -23q37 -18 60 -59t23 -111q0 -67 -24 -106q-25 -40 -63 -57q-36 -16 -84 -21q-39 -4 -118 -4h-68z" />
<glyph unicode="Q" horiz-adv-x="1816" d="M53 801q0 -183 64 -341t178 -272t272 -177q155 -62 340 -62q258 0 424 100l123 -145l369 57l-260 264q198 246 198 543q0 186 -64 338q-65 155 -181 263q-117 109 -273 168q-155 58 -336 58q-167 0 -320 -58q-155 -59 -276 -166q-120 -106 -189 -254q-69 -147 -69 -316z M471 799q0 76 35 152q34 74 95 132t140 91q77 32 168 32q87 0 168 -35t140 -97q58 -61 93 -142q33 -76 33 -166q0 -59 -18 -119q-17 -56 -53 -108l-109 112l-379 -47l248 -246q-57 -20 -123 -20q-90 0 -168 34q-80 35 -141 97q-60 61 -95 147q-34 83 -34 183z" />
<glyph unicode="R" horiz-adv-x="1392" d="M131 0h401v594h5l378 -594h500l-485 633q162 29 249 149q89 122 89 287q0 237 -148 356t-389 119h-600v-1544zM532 852v385h39q59 0 104 -7q49 -8 88 -28t63 -59t24 -99q0 -59 -24 -98t-63 -59t-88 -28q-45 -7 -104 -7h-39z" />
<glyph unicode="S" horiz-adv-x="1261" d="M61 135q117 -83 260 -130q139 -46 283 -46q124 0 238 36q116 37 200 109q85 73 123 182q37 107 37 234q0 91 -27 160t-80 119q-53 49 -120 84q-68 35 -154 59l-102 31q-79 27 -129 57q-49 30 -49 90t54 94q55 35 118 35q71 0 140 -27q65 -26 126 -75l160 311 q-102 57 -234 92t-250 35q-115 0 -213 -37q-100 -38 -170 -105t-110 -164q-39 -95 -39 -212q0 -108 29 -181t82 -119t124 -75q61 -25 183 -61l12 -4q35 -9 83 -25q37 -12 71 -33q35 -22 56 -48q21 -27 21 -66q0 -75 -57 -116q-56 -40 -137 -40q-97 0 -184 43 q-90 44 -173 117z" />
<glyph unicode="T" horiz-adv-x="1091" d="M12 1204h332v-1204h401v1204h332v340h-1065v-340z" />
<glyph unicode="U" horiz-adv-x="1593" d="M123 676q0 -190 30 -317t132 -228q91 -91 227 -131q138 -41 285 -41q146 0 284 41t228 131q102 101 132 228q29 123 29 317v868h-401v-813q0 -99 -7 -163q-8 -70 -34 -127q-27 -59 -83 -94q-57 -36 -148 -36q-92 0 -149 36q-56 36 -83 95q-26 59 -34 127q-7 63 -7 162 v813h-401v-868z" />
<glyph unicode="V" horiz-adv-x="1558" d="M-31 1544l649 -1544h312l659 1544h-436l-375 -938l-372 938h-437z" />
<glyph unicode="W" horiz-adv-x="2287" d="M-31 1544l461 -1544h408l303 895h4l270 -895h410l493 1544h-417l-291 -997h-4l-303 997h-320l-324 -997h-4l-268 997h-418z" />
<glyph unicode="X" horiz-adv-x="1615" d="M-16 0h485l354 504l324 -504h483l-571 825l493 719h-493l-236 -399l-235 399h-494l494 -719z" />
<glyph unicode="Y" horiz-adv-x="1462" d="M-39 1544l569 -803v-741h402v741l569 803h-481l-289 -420l-289 420h-481z" />
<glyph unicode="Z" horiz-adv-x="1447" d="M23 0h1323v340h-648l727 1204h-1278v-340h607z" />
<glyph unicode="[" horiz-adv-x="716" d="M106 -492h504v218h-219v1675h219v217h-504v-2110z" />
<glyph unicode="\" horiz-adv-x="1185" d="M55 1700l785 -1700h290l-780 1700h-295z" />
<glyph unicode="]" horiz-adv-x="716" d="M106 -274v-218h504v2110h-504v-217h220v-1675h-220z" />
<glyph unicode="^" d="M211 834l233 -138l258 551l259 -551l233 138l-369 772h-245z" />
<glyph unicode="_" horiz-adv-x="1024" d="M0 -154v-102h1024v102h-1024z" />
<glyph unicode="`" horiz-adv-x="823" d="M154 1516l350 -310l166 121l-289 352z" />
<glyph unicode="a" horiz-adv-x="1396" d="M47 526q0 -112 39 -214q38 -99 111 -180q73 -80 170 -123q100 -44 211 -44q98 0 184 39t133 113h4v-117h373v1051h-373v-103q-58 69 -144 103t-182 34q-114 0 -211 -44q-95 -43 -167 -121q-73 -79 -110 -180q-38 -103 -38 -214zM432 524q0 99 65 169q65 69 175 69 t175 -69q64 -68 64 -169q0 -104 -64 -169q-65 -66 -175 -66t-175 66q-65 67 -65 169z" />
<glyph unicode="b" horiz-adv-x="1396" d="M111 0h372v117h4q49 -76 136 -114t182 -38q113 0 213 44q97 43 169 122q70 77 109 180q39 102 39 215q0 111 -38 214q-37 102 -108 180q-70 77 -168 121q-99 44 -212 44q-95 0 -181 -34q-87 -35 -145 -103v752h-372v-1700zM471 524q0 99 65 169q64 69 175 69t175 -69 q64 -68 64 -169q0 -104 -64 -169q-64 -66 -175 -66t-175 66q-65 67 -65 169z" />
<glyph unicode="c" horiz-adv-x="989" d="M47 514q0 -116 45 -218t124 -175q82 -76 183 -115q106 -41 219 -41q144 0 263 60v315q-36 -32 -87 -52t-100 -20q-113 0 -188 73q-74 72 -74 185q0 109 74 183q73 73 182 73q52 0 99 -19q50 -20 94 -54v315q-110 61 -246 61q-122 0 -231 -41q-107 -40 -187 -117 q-79 -76 -125 -183q-45 -105 -45 -230z" />
<glyph unicode="d" horiz-adv-x="1396" d="M61 526q0 -112 39 -214q38 -99 111 -180q73 -80 170 -123q100 -44 211 -44q98 0 184 39t133 113h4v-117h373v1700h-373v-752q-58 69 -144 103t-181 34q-114 0 -211 -44t-168 -121q-73 -79 -110 -180q-38 -103 -38 -214zM446 524q0 99 65 169q65 69 175 69t175 -69 q65 -70 65 -169q0 -102 -65 -169q-65 -66 -175 -66t-175 66q-65 67 -65 169z" />
<glyph unicode="e" horiz-adv-x="1249" d="M45 524q0 -264 169 -411q171 -148 439 -148q191 0 342 92q149 91 193 269h-359q-58 -97 -178 -97q-233 0 -233 234h784v39q0 272 -151 427q-152 156 -424 156q-128 0 -235 -37q-105 -36 -185 -112q-78 -74 -120 -178q-42 -105 -42 -234zM424 678q16 79 77 123 q59 43 144 43q78 0 137 -46t74 -120h-432z" />
<glyph unicode="f" horiz-adv-x="794" d="M29 743h131v-743h372v743h261v308h-261v170q0 92 30 134t100 42q31 0 60 -8q17 -5 71 -27v321q-71 37 -160 37q-109 0 -202 -43q-98 -45 -165 -125q-71 -81 -88 -157q-18 -78 -18 -211v-133h-131v-308z" />
<glyph unicode="g" horiz-adv-x="1386" d="M51 516q0 -111 38 -211q37 -98 107 -171q72 -75 164 -114q95 -40 209 -40q104 0 182 34q76 33 152 109v-49q0 -73 -10 -123q-11 -53 -36 -93t-73 -63q-45 -22 -120 -22q-58 0 -107 24q-55 27 -70 80h-417q12 -99 70 -175q60 -78 147 -127q94 -52 187 -75q99 -24 194 -24 q298 0 453 150t155 476v949h-373v-111h-4q-53 76 -132 111q-78 34 -177 34q-119 0 -218 -45q-100 -45 -171 -124q-73 -80 -111 -182q-39 -104 -39 -218zM436 532q0 99 65 169q65 69 175 69t175 -69q64 -68 64 -169q0 -103 -64 -168q-65 -67 -175 -67t-175 67t-65 168z" />
<glyph unicode="h" horiz-adv-x="1353" d="M123 0h373v539q0 106 46 177q46 72 148 72q54 0 87 -20t51 -55q18 -34 24 -77q6 -42 6 -97v-539h373v643q0 205 -101 324q-100 118 -294 118q-108 0 -190 -41q-79 -40 -146 -126h-4v782h-373v-1700z" />
<glyph unicode="i" horiz-adv-x="618" d="M100 1454q0 -85 62 -147t147 -62q86 0 148 62q61 61 61 147q0 87 -61 148t-148 61q-86 0 -147 -61q-62 -62 -62 -148zM123 0h373v1051h-373v-1051z" />
<glyph unicode="j" horiz-adv-x="618" d="M100 1454q0 -85 62 -147t147 -62q86 0 148 62q61 61 61 147q0 87 -61 148t-148 61q-86 0 -147 -61q-62 -62 -62 -148zM123 -524h373v1575h-373v-1575z" />
<glyph unicode="k" horiz-adv-x="1409" d="M123 0h373v428l407 -428h522l-559 565l527 486h-510l-387 -379v1028h-373v-1700z" />
<glyph unicode="l" horiz-adv-x="618" d="M123 0h373v1700h-373v-1700z" />
<glyph unicode="m" horiz-adv-x="2025" d="M123 0h373v502q0 66 4 107q5 51 18 89q16 45 50 71q37 28 94 28q56 0 93 -28q36 -27 51 -71t18 -89q3 -47 3 -107v-502h373v502q0 55 5 107q4 43 22 87q17 43 53 67q37 25 98 25q54 0 85 -25q30 -24 46 -67q14 -38 19 -86q4 -40 4 -108v-502h373v670q0 194 -84 305 q-83 110 -275 110q-112 0 -207 -52q-97 -53 -149 -148q-55 101 -148 151q-91 49 -211 49q-208 0 -331 -165h-4v131h-373v-1051z" />
<glyph unicode="n" horiz-adv-x="1353" d="M123 0h373v545q0 111 45 177t149 66q56 0 91 -21q33 -20 50 -58q18 -40 22 -84q5 -52 5 -113v-512h373v649q0 205 -96 321q-96 115 -299 115q-116 0 -193 -38q-79 -39 -143 -132h-4v136h-373v-1051z" />
<glyph unicode="o" horiz-adv-x="1355" d="M45 524q0 -129 50 -235q49 -105 138 -177q89 -73 203 -110q112 -37 242 -37q126 0 243 38q114 37 202 110q89 74 138 177q50 106 50 234q0 131 -50 237q-49 104 -139 177t-202 110t-242 37t-242 -37q-114 -37 -203 -110q-89 -72 -138 -177q-50 -106 -50 -237zM438 524 q0 99 65 169q65 69 175 69t175 -69q65 -70 65 -169q0 -102 -65 -169q-65 -66 -175 -66t-175 66q-65 67 -65 169z" />
<glyph unicode="p" horiz-adv-x="1396" d="M111 -524h372v624q56 -65 145 -100q88 -35 181 -35q116 0 212 43q98 44 168 121q71 79 108 179q38 103 38 214q0 113 -39 215q-40 104 -109 182t-169 122t-213 44q-99 0 -182 -38q-87 -40 -136 -115h-4v119h-372v-1575zM471 524q0 99 65 169q64 69 175 69t175 -69 q64 -68 64 -169q0 -104 -64 -169q-64 -66 -175 -66t-175 66q-65 67 -65 169z" />
<glyph unicode="q" horiz-adv-x="1396" d="M61 522q0 -111 38 -214q36 -98 109 -179q70 -77 168 -121q96 -43 212 -43q95 0 183 35q87 34 142 100v-624h373v1575h-373v-119h-4q-46 75 -133 115q-83 38 -184 38q-112 0 -211 -45q-98 -45 -170 -124q-72 -80 -111 -181q-39 -102 -39 -213zM446 524q0 99 65 169 q65 69 175 69t175 -69q65 -70 65 -169q0 -102 -65 -169q-65 -66 -175 -66t-175 66q-65 67 -65 169z" />
<glyph unicode="r" horiz-adv-x="927" d="M123 0h373v424q0 152 57 234q57 83 201 83q51 0 85 -7q38 -8 72 -27v358h-71q-114 0 -200 -46q-89 -47 -140 -140h-4v172h-373v-1051z" />
<glyph unicode="s" horiz-adv-x="1050" d="M53 86q96 -60 204 -90q112 -31 220 -31q95 0 183 24q91 25 160 70q72 47 112 122q41 76 41 175q0 138 -81 210q-83 74 -224 102l-21 4q-69 13 -106 29q-41 18 -41 59q0 35 38 53t78 18q51 0 103 -14q55 -15 98 -37l125 238q-149 67 -346 67q-90 0 -171 -22 q-85 -23 -150 -69q-68 -48 -104 -117q-38 -73 -38 -164q0 -67 20 -116q20 -50 51 -79q34 -33 71 -49q40 -18 92 -33q7 -2 17.5 -4t26.5 -5.5t27 -6.5q82 -18 123 -38q39 -20 39 -63q0 -38 -37 -59q-36 -20 -80 -20q-66 0 -149 31q-85 32 -146 75z" />
<glyph unicode="t" horiz-adv-x="737" d="M37 743h121v-743h372v743h211v308h-211v315h-372v-315h-121v-308z" />
<glyph unicode="u" horiz-adv-x="1349" d="M117 418q0 -127 42 -214t116 -139t177 -76q102 -24 224 -24t224 24q103 24 176 74q75 51 117 140q42 88 42 215v633h-373v-562q0 -110 -40 -168q-41 -59 -146 -59q-106 0 -147 59q-40 58 -40 168v562h-372v-633z" />
<glyph unicode="v" horiz-adv-x="1275" d="M-31 1051l551 -1051h238l549 1051h-418l-250 -539l-252 539h-418z" />
<glyph unicode="w" horiz-adv-x="2039" d="M-31 1051l549 -1051h242l260 575l260 -575h242l549 1051h-412l-264 -570l-265 570h-221l-264 -570l-262 570h-414z" />
<glyph unicode="x" horiz-adv-x="1458" d="M-31 0h490l270 311l270 -311h490l-524 569l434 482h-481l-189 -217l-188 217h-473l426 -482z" />
<glyph unicode="y" horiz-adv-x="1339" d="M-31 1051l508 -908l-358 -667h418l841 1575h-424l-274 -539l-281 539h-430z" />
<glyph unicode="z" horiz-adv-x="1144" d="M16 0h1065v309h-442l491 742h-1048v-310h428z" />
<glyph unicode="{" horiz-adv-x="720" d="M74 465q66 0 105 -25q38 -24 38 -104v-518q0 -73 25 -135t61 -98q38 -38 76 -57q40 -20 70 -20h198v246h-51q-61 0 -78 31q-16 29 -16 90v455q0 75 -20 123q-19 46 -49 70q-31 24 -59 33q-28 8 -67 13h-2v4q35 5 63 16q35 13 62 35q30 24 51 64t21 103v460q0 61 16 90 q17 31 78 31h51v246h-198q-30 0 -70 -20q-39 -19 -76 -58t-61 -98q-25 -62 -25 -137v-519q0 -67 -39 -88q-37 -20 -104 -20v-213z" />
<glyph unicode="|" horiz-adv-x="1185" d="M440 -438h308v2048h-308v-2048z" />
<glyph unicode="}" horiz-adv-x="720" d="M74 -246v-246h198q30 0 70 20q38 19 76 57q36 36 61 98q25 63 25 135v518q0 80 38 104q39 25 105 25v213q-67 0 -104 20q-39 21 -39 88v519q0 77 -24 137q-24 59 -61 98q-36 38 -77 58q-40 20 -70 20h-198v-246h51q61 0 78 -31q16 -29 16 -90v-460q0 -62 21 -104 q21 -41 51 -64q29 -22 61 -33t64 -17v-4h-2q-40 -5 -66 -13q-29 -9 -59 -33q-31 -25 -50 -70q-20 -48 -20 -123v-455q0 -60 -15 -90q-16 -31 -79 -31h-51z" />
<glyph unicode="~" d="M100 487l232 -196q32 74 64 121q34 51 69 51q29 0 63 -18q44 -23 90 -54q20 -13 48 -30l28 -17q15 -6 31 -18q67 -40 115 -60q47 -20 106 -20q62 0 113 29q55 31 97 78q44 49 77 98q31 47 70 112l2 2l-234 199q-25 -69 -56 -118q-35 -54 -71 -54q-40 0 -105 31 q-63 30 -116 71q-66 49 -134 82q-69 33 -128 33q-87 0 -156 -64q-67 -63 -147 -180q-38 -56 -58 -78z" />
<glyph unicode="&#xa1;" horiz-adv-x="786" d="M154 850q0 -98 69 -169t170 -71t170 71q70 72 70 169q0 100 -70 170t-170 70t-170 -70q-69 -69 -69 -170zM201 -498h387v1020h-387v-1020z" />
<glyph unicode="&#xa2;" d="M289 772q0 -108 40 -204q42 -100 111 -174q73 -78 166 -122t201 -49v-203h190v218q45 5 119 32v334q-32 -38 -84 -58t-108 -20q-104 0 -175 73t-71 179q0 108 74 179t184 71q98 0 180 -78v334l-119 35v203h-190v-191q-115 -11 -208 -55q-97 -46 -165 -120 q-70 -77 -107 -173q-38 -100 -38 -211z" />
<glyph unicode="&#xa3;" d="M39 614h330q57 -88 57 -163q0 -48 -20 -89q-71 0 -130 -31q-57 -30 -104 -83t-76 -116q-32 -68 -43 -132h266q10 38 49 57q40 19 81 19q43 0 117 -16q86 -19 143 -35l47 -15q77 -22 130 -33q47 -10 105 -10q175 0 270 109t107 286h-250q0 -46 -28 -73t-76 -27 q-54 0 -145 22q-84 20 -158 48l-23 8q19 54 19 135q0 84 -19 139h291v156h-320q-84 123 -84 270q0 91 53 155q52 62 142 62q78 0 132 -58t54 -136v-72h398q-2 306 -135 444t-435 138q-133 0 -239 -34q-111 -35 -193 -116q-80 -77 -123 -178t-43 -213q0 -143 74 -262h-221 v-156z" />
<glyph unicode="&#xa4;" d="M100 311l127 -129l136 135q67 -56 155 -84t191 -28q99 0 185 29q88 30 150 81l138 -135l123 133l-136 136q56 64 84 147q31 91 31 182q0 94 -30 186t-80 158l126 129l-126 127l-138 -137q-57 50 -145 78q-90 29 -182 29q-94 0 -187 -29q-91 -28 -157 -78l-138 137 l-127 -129l136 -137q-49 -60 -76 -149q-27 -90 -27 -189q0 -94 27 -179q28 -87 76 -149zM440 768q0 114 77 194q75 78 192 78q116 0 191 -78q77 -80 77 -194q0 -115 -76 -185q-77 -71 -192 -71t-192 71t-77 185z" />
<glyph unicode="&#xa5;" d="M-23 1544l316 -475h-189v-156h291l117 -172h-408v-155h410v-586h377v586h405v155h-405l115 172h290v156h-186l317 475h-454l-271 -420l-270 420h-455z" />
<glyph unicode="&#xa6;" horiz-adv-x="1185" d="M440 -182h308v512h-308v-512zM440 842h308v512h-308v-512z" />
<glyph unicode="&#xa7;" d="M117 621q0 -118 62 -199q62 -82 177 -139l324 -158l22 -10q71 -34 111 -68q39 -33 39 -90q0 -63 -45 -100q-44 -37 -111 -37q-77 0 -139 53q-61 52 -61 133h-375q0 -118 48 -210q47 -89 129 -150q80 -59 181 -88q102 -29 209 -29q99 0 199 28q94 26 172 83q77 56 120 139 q44 85 44 190q0 77 -27 149q-28 73 -78 118q80 63 126 145t46 176q0 78 -22 134q-22 55 -62 97q-42 43 -89 72q-57 34 -128 70l-227 114q-7 3 -31 15q-78 38 -118 71q-42 34 -42 95q0 47 34 75q35 29 81 29q56 0 94 -34q39 -35 51 -89h322q-5 99 -45 171t-109 119t-151 68 q-84 21 -180 21q-90 0 -174 -24q-81 -23 -150 -75q-63 -48 -104 -124q-39 -74 -39 -168q0 -64 24 -131q24 -68 68 -109q-81 -68 -128 -152q-48 -87 -48 -181zM430 707q0 36 17 64q17 29 47 46l335 -170h2q73 -36 109 -67q39 -33 39 -86q0 -30 -15 -61q-15 -32 -38 -50 l-342 170l-17 8q-60 27 -101 63q-36 32 -36 83z" />
<glyph unicode="&#xa8;" horiz-adv-x="1236" d="M154 1438q0 -85 59 -143t143 -58q85 0 143 58t58 143q0 82 -59 141t-142 59q-84 0 -143 -58t-59 -142zM678 1438q0 -85 59 -143t144 -58q84 0 142 58t58 143q0 82 -59 141t-141 59q-85 0 -144 -58t-59 -142z" />
<glyph unicode="&#xa9;" horiz-adv-x="1638" d="M8 770q0 -166 63 -313q63 -148 174 -260q110 -111 260 -175q149 -63 314 -63q167 0 315 63q150 64 260 175q111 112 174 260q62 145 62 313q0 167 -62 315q-63 151 -174 263q-110 111 -260 175q-146 62 -315 62q-168 0 -314 -62q-150 -64 -260 -175q-111 -112 -174 -263 q-63 -150 -63 -315zM201 770q0 137 46 250q48 117 130 199q85 85 197 129q114 45 245 45q129 0 243 -45t198 -129q84 -85 131 -200q47 -117 47 -249q0 -131 -47 -246q-46 -113 -131 -198q-84 -84 -198 -129t-243 -45q-131 0 -245 45q-112 44 -197 129q-84 84 -130 197 t-46 247zM403 778q0 -94 32 -181q31 -85 92 -150q58 -63 144 -100q83 -36 183 -36q145 0 254 86q108 86 125 230h-184q-4 -71 -62 -115q-56 -43 -133 -43q-57 0 -105 27q-50 28 -83 71q-70 93 -70 215q0 129 68 218q69 90 184 90q77 0 133 -38t68 -112h184q-24 141 -130 224 t-253 83q-204 0 -326 -131q-121 -130 -121 -338z" />
<glyph unicode="&#xaa;" horiz-adv-x="837" d="M23 1249q0 -69 25 -128q26 -61 72 -107q48 -48 109 -74q63 -27 138 -27q62 0 119 24t85 67h4v-70h242v631h-242v-62q-39 42 -93 62t-117 20q-151 0 -246 -98q-96 -99 -96 -238zM272 1249q0 60 46 102q47 42 110 42q66 0 111 -42t45 -102q0 -59 -45 -101t-111 -42 q-64 0 -110 42t-46 101z" />
<glyph unicode="&#xab;" horiz-adv-x="1234" d="M53 655l353 -503l210 147l-264 356l258 363l-204 141zM563 655l352 -503l211 147l-264 356l258 363l-205 141z" />
<glyph unicode="&#xac;" d="M178 618h742v-329h307v637h-1049v-308z" />
<glyph unicode="&#xad;" horiz-adv-x="802" d="M109 504h585v307h-585v-307z" />
<glyph unicode="&#xae;" horiz-adv-x="1638" d="M8 770q0 -166 63 -313q63 -148 174 -260q110 -111 260 -175q149 -63 314 -63q167 0 315 63q150 64 260 175q111 112 174 260q62 145 62 313q0 167 -62 315q-63 151 -174 263q-110 111 -260 175q-146 62 -315 62q-168 0 -314 -62q-150 -64 -260 -175q-111 -112 -174 -263 q-63 -150 -63 -315zM201 770q0 137 46 250q48 117 130 199q85 85 197 129q114 45 245 45q129 0 243 -45t198 -129q84 -85 131 -200q47 -117 47 -249q0 -131 -47 -246q-46 -113 -131 -198q-84 -84 -198 -129t-243 -45q-131 0 -245 45q-112 44 -197 129q-84 84 -130 197 t-46 247zM496 358h188v357h131l189 -357h204l-204 357q115 8 172 62t57 167q0 82 -24 133q-25 53 -65 79q-44 28 -100 37q-57 9 -139 9h-409v-844zM684 842v213h182q34 0 72 -2q25 -1 56 -10q28 -8 45 -25q18 -18 18 -49q0 -76 -35 -102q-34 -25 -113 -25h-225z" />
<glyph unicode="&#xaf;" horiz-adv-x="1234" d="M154 1321h925v219h-925v-219z" />
<glyph unicode="&#xb0;" horiz-adv-x="819" d="M102 1276q0 -127 89 -216t217 -89q62 0 117 23q57 24 100 67t67 98q25 58 25 117q0 61 -25 120q-23 55 -67 99q-43 43 -100 67q-55 23 -117 23q-128 0 -217 -89t-89 -220zM276 1278q0 55 39 94t93 39q57 0 96 -39t39 -94t-39 -94t-94 -39q-56 0 -95 39t-39 94z" />
<glyph unicode="&#xb1;" d="M178 0h1049v307h-1049v-307zM178 741h371v-290h307v290h371v308h-371v290h-307v-290h-371v-308z" />
<glyph unicode="&#xb2;" horiz-adv-x="843" d="M6 643h807v203h-328l156 135q84 69 123 135t39 160q0 146 -112 238t-275 92q-175 0 -281 -98q-104 -97 -110 -259h286v6q-4 19 -4 33q0 50 30 81q30 32 81 32q49 0 82 -37q32 -36 32 -82q0 -61 -32 -119t-82 -108z" />
<glyph unicode="&#xb3;" horiz-adv-x="843" d="M8 944q0 -63 34 -125t81 -106q58 -56 133 -80q80 -25 166 -25q160 0 274 81q115 82 115 224q0 78 -44 148t-120 86q53 29 80 80t27 110q0 125 -91 197t-231 72q-154 0 -257 -80q-101 -79 -116 -223h242q0 45 30 75q31 31 77 31q44 0 73 -26t29 -66q0 -48 -32 -75 q-33 -28 -83 -28h-26v-159q14 2 16 2q16 4 31 4q56 0 96 -36q41 -36 41 -87q0 -54 -39 -89q-38 -34 -100 -34q-63 0 -101 37q-39 37 -39 92h-266z" />
<glyph unicode="&#xb4;" horiz-adv-x="823" d="M154 1327l165 -121l351 310l-228 163z" />
<glyph unicode="&#xb5;" horiz-adv-x="1349" d="M117 -524h372v590q45 -41 111 -71q68 -30 158 -30q78 0 162 23q81 22 153 73q71 50 117 141q45 88 45 216v633h-373v-562q0 -110 -40 -168q-41 -59 -146 -59q-106 0 -147 59q-40 58 -40 168v562h-372v-1575z" />
<glyph unicode="&#xb6;" d="M96 1072q0 -2 0.5 -4t1 -5.5t0.5 -7.5v-21q12 -109 54 -196q40 -82 104 -132q65 -51 141 -76q78 -26 174 -36v-942h207v1704h191v-1704h207v1706h135v186h-772q-85 0 -164 -39q-84 -41 -144 -107q-63 -69 -99 -153t-36 -170v-3z" />
<glyph unicode="&#xb7;" horiz-adv-x="702" d="M113 524q0 -98 69 -169q69 -70 170 -70t170 70q70 72 70 169q0 100 -70 170t-170 70t-170 -70q-69 -69 -69 -170z" />
<glyph unicode="&#xb8;" horiz-adv-x="778" d="M154 -385l159 -100l310 292l-203 132z" />
<glyph unicode="&#xb9;" horiz-adv-x="843" d="M190 1366h144v-723h260v926h-404v-203z" />
<glyph unicode="&#xba;" horiz-adv-x="839" d="M10 1249q0 -155 119 -245q120 -91 291 -91t292 91q119 89 119 245q0 157 -119 246q-120 90 -292 90t-291 -90t-119 -246zM266 1249q0 61 45 101q46 41 109 41q64 0 110 -41q45 -40 45 -101q0 -59 -45 -100q-46 -41 -110 -41q-63 0 -109 41q-45 41 -45 100z" />
<glyph unicode="&#xbb;" horiz-adv-x="1234" d="M109 299l210 -147l353 503l-353 504l-204 -141l258 -363zM618 299l211 -147l353 503l-353 504l-204 -141l258 -363z" />
<glyph unicode="&#xbc;" horiz-adv-x="2107" d="M205 1341h143v-723h260v926h-403v-203zM424 0h201l897 1544h-201zM1053 193h487v-193h242v193h121v184h-121v549h-342l-387 -580v-153zM1303 375l233 356h4v-356h-237z" />
<glyph unicode="&#xbd;" horiz-adv-x="2107" d="M205 1341h143v-723h260v926h-403v-203zM367 0h200l897 1544h-200zM1096 0h807v203h-328l156 135q82 67 122 135q39 66 39 160q0 146 -111 238q-112 92 -276 92q-174 0 -280 -98q-105 -98 -111 -259h287v6q-4 19 -4 33q0 51 29 81q30 32 81 32q49 0 82 -37t33 -82 q0 -59 -33 -119q-32 -58 -82 -108z" />
<glyph unicode="&#xbe;" horiz-adv-x="2107" d="M102 883q0 -63 34 -125q35 -64 81 -107q58 -56 133 -80q76 -24 166 -24q161 0 275 81t114 224q0 77 -44 147t-120 86q53 29 80 80t27 111q0 125 -91 197q-90 71 -231 71q-154 0 -257 -80q-100 -78 -115 -223h241q0 46 30 76q31 31 77 31q44 0 73 -26t29 -67 q0 -47 -32 -74q-33 -28 -83 -28h-26v-160q14 2 16 2q16 4 31 4q57 0 96 -35q41 -36 41 -87q0 -55 -39 -90q-37 -33 -100 -33q-60 0 -100 37q-39 34 -39 92h-267zM600 0h201l897 1544h-201zM1155 193h487v-193h242v193h121v184h-121v549h-342l-387 -580v-153zM1405 375 l233 356h4v-356h-237z" />
<glyph unicode="&#xbf;" horiz-adv-x="1218" d="M92 -59q0 -99 48 -193t128 -162q74 -64 167 -95q94 -32 192 -32q109 0 211 32q100 31 179 94q78 62 125 153q46 89 46 203h-408q0 -69 -38 -113q-37 -43 -105 -43q-63 0 -107 45q-43 44 -43 109q0 94 83 148q82 54 182 54q42 0 86 -10v397h-375v-145q-165 -51 -269 -165 q-102 -111 -102 -277zM403 850q0 -97 70 -169q69 -71 170 -71t170 71q70 72 70 169q0 100 -70 170t-170 70t-170 -70t-70 -170z" />
<glyph unicode="&#xc0;" horiz-adv-x="1599" d="M-8 0h426l106 268h553l101 -268h428l-582 1544h-438zM502 1948l350 -310l166 121l-289 352zM635 575l166 492h4l164 -492h-334z" />
<glyph unicode="&#xc1;" horiz-adv-x="1599" d="M-8 0h426l106 268h553l101 -268h428l-582 1544h-438zM584 1759l166 -121l350 310l-228 163zM635 575l166 492h4l164 -492h-334z" />
<glyph unicode="&#xc2;" horiz-adv-x="1599" d="M-8 0h426l106 268h553l101 -268h428l-582 1544h-438zM350 1794l152 -172l295 227l295 -227l157 172l-452 336zM635 575l166 492h4l164 -492h-334z" />
<glyph unicode="&#xc3;" horiz-adv-x="1599" d="M-8 0h426l106 268h553l101 -268h428l-582 1544h-438zM391 1716l2 -22h168l2 8q10 31 24 50q13 17 44 17q51 0 149 -36q108 -39 162 -39q62 0 111 28q47 27 82 76q32 45 51 105q17 55 22 114h-174q-15 -40 -30 -56q-16 -17 -52 -17q-42 0 -147 32q-57 15 -107 27 q-41 10 -80 10q-54 0 -104 -33t-78 -82q-45 -76 -45 -182zM635 575l166 492h4l164 -492h-334z" />
<glyph unicode="&#xc4;" horiz-adv-x="1599" d="M-8 0h426l106 268h553l101 -268h428l-582 1544h-438zM336 1870q0 -85 59 -143t144 -58q84 0 142 58t58 143q0 82 -59 141q-60 60 -141 60q-83 0 -144 -59q-59 -58 -59 -142zM635 575l166 492h4l164 -492h-334zM860 1870q0 -84 60 -143q59 -58 143 -58t142 58 q59 59 59 143q0 81 -60 141t-141 60q-82 0 -143 -59q-60 -59 -60 -142z" />
<glyph unicode="&#xc5;" horiz-adv-x="1599" d="M-8 0h426l106 268h553l101 -268h428l-582 1544h-438zM485 1833q0 -63 27 -110q26 -45 73 -72t101 -39q60 -13 117 -13t115 14q54 13 99 41q43 27 70 72t27 109q0 63 -27 110t-72 73q-49 29 -102 40q-60 13 -116 13q-57 0 -116 -14q-55 -13 -100 -41t-70 -73 q-26 -47 -26 -110zM635 575l166 492h4l164 -492h-334zM680 1835q0 46 36 67t85 21q47 0 83 -21t36 -67t-36 -67t-83 -21q-49 0 -85 21t-36 67z" />
<glyph unicode="&#xc6;" horiz-adv-x="2101" d="M-8 0h424l96 268h559l100 -268h930l-123 340h-508l-100 266h510l-129 340h-506l-94 258h508l-125 340h-946zM623 575l174 459l166 -459h-340z" />
<glyph unicode="&#xc7;" horiz-adv-x="1351" d="M53 770q0 -176 62 -324t186 -260q123 -109 270 -168t310 -59q81 0 152 15q65 14 192 53l10 4v481q-62 -75 -156 -120q-93 -44 -190 -44q-187 0 -302 118q-116 119 -116 302q0 90 30 168t85 136t131 91t166 33q102 0 198 -44q94 -43 154 -126v481q-189 78 -367 78 q-161 0 -317 -66q-154 -65 -270 -184q-110 -111 -169 -260q-59 -148 -59 -305zM492 -385l159 -100l310 292l-203 132z" />
<glyph unicode="&#xc8;" horiz-adv-x="1126" d="M131 0h879v340h-478v266h453v340h-453v258h478v340h-879v-1544zM305 1948l350 -310l166 121l-289 352z" />
<glyph unicode="&#xc9;" horiz-adv-x="1126" d="M131 0h879v340h-478v266h453v340h-453v258h478v340h-879v-1544zM305 1759l166 -121l350 310l-227 163z" />
<glyph unicode="&#xca;" horiz-adv-x="1126" d="M113 1794l151 -172l295 227l295 -227l158 172l-453 336zM131 0h879v340h-478v266h453v340h-453v258h478v340h-879v-1544z" />
<glyph unicode="&#xcb;" horiz-adv-x="1126" d="M98 1870q0 -84 60 -143q59 -58 143 -58t142 58q59 59 59 143q0 81 -60 141t-141 60q-82 0 -143 -59q-60 -59 -60 -142zM131 0h879v340h-478v266h453v340h-453v258h478v340h-879v-1544zM623 1870q0 -85 59 -143t143 -58q85 0 143 58t58 143q0 82 -59 141q-60 60 -142 60 t-143 -59q-59 -58 -59 -142z" />
<glyph unicode="&#xcc;" horiz-adv-x="663" d="M43 1948l350 -310l166 121l-289 352zM131 0h401v1544h-401v-1544z" />
<glyph unicode="&#xcd;" horiz-adv-x="663" d="M104 1759l166 -121l351 310l-228 163zM131 0h401v1544h-401v-1544z" />
<glyph unicode="&#xce;" horiz-adv-x="663" d="M-88 1794l151 -172l295 227l295 -227l158 172l-453 336zM131 0h401v1544h-401v-1544z" />
<glyph unicode="&#xcf;" horiz-adv-x="663" d="M-133 1870q0 -85 59 -143t144 -58q84 0 142 58t58 143q0 82 -59 141q-60 60 -141 60q-83 0 -144 -59q-59 -58 -59 -142zM131 0h401v1544h-401v-1544zM391 1870q0 -84 60 -143q59 -58 143 -58t142 58q59 59 59 143q0 81 -60 141t-141 60q-82 0 -143 -59q-60 -59 -60 -142z " />
<glyph unicode="&#xd0;" horiz-adv-x="1540" d="M-41 633h172v-633h524q177 0 326 56q152 57 265 161q112 103 176 246q63 141 63 309q0 163 -61 308q-59 141 -173 247q-110 103 -266 161q-150 56 -334 56h-520v-596h-172v-315zM532 340v293h226v315h-226v256h95q197 0 319 -114q121 -114 121 -318q0 -107 -35 -191 q-36 -86 -96 -137q-62 -52 -141 -78q-81 -26 -172 -26h-91z" />
<glyph unicode="&#xd1;" horiz-adv-x="1804" d="M131 0h401v946h5l735 -946h401v1544h-401v-944h-4l-736 944h-401v-1544zM494 1716l2 -22h168l2 8q11 34 23 50q13 17 44 17q52 0 150 -36q108 -39 161 -39q62 0 111 28q47 27 82 76q32 45 51 105q19 59 23 114h-174q-15 -38 -31 -56q-16 -17 -51 -17q-43 0 -148 32 q-69 18 -106 27q-41 10 -80 10q-55 0 -105 -33q-48 -32 -77 -82q-45 -76 -45 -182z" />
<glyph unicode="&#xd2;" horiz-adv-x="1816" d="M53 801q0 -183 64 -341t178 -272t272 -177q155 -62 340 -62t340 62q162 65 273 176q115 115 178 272t63 342q0 171 -68 316q-69 146 -190 254t-275 166q-153 58 -321 58q-167 0 -320 -58q-155 -59 -276 -166q-120 -106 -189 -254q-69 -147 -69 -316zM471 799q0 79 34 151 q35 75 95 132q63 60 140 92t167 32q91 0 168 -32q79 -33 140 -91t95 -132q33 -72 33 -152q0 -103 -33 -183q-34 -83 -95 -147q-59 -62 -140 -97q-78 -34 -168 -34t-168 34q-81 35 -140 97t-94 147q-34 83 -34 183zM610 1948l351 -310l165 121l-288 352z" />
<glyph unicode="&#xd3;" horiz-adv-x="1816" d="M53 801q0 -183 64 -341t178 -272t272 -177q155 -62 340 -62t340 62q162 65 273 176q115 115 178 272t63 342q0 171 -68 316q-69 146 -190 254t-275 166q-153 58 -321 58q-167 0 -320 -58q-155 -59 -276 -166q-120 -106 -189 -254q-69 -147 -69 -316zM471 799q0 79 34 151 q35 75 95 132q63 60 140 92t167 32q91 0 168 -32q79 -33 140 -91t95 -132q33 -72 33 -152q0 -103 -33 -183q-34 -83 -95 -147q-59 -62 -140 -97q-78 -34 -168 -34t-168 34q-81 35 -140 97t-94 147q-34 83 -34 183zM692 1759l166 -121l350 310l-227 163z" />
<glyph unicode="&#xd4;" horiz-adv-x="1816" d="M53 801q0 -183 64 -341t178 -272t272 -177q155 -62 340 -62t340 62q162 65 273 176q115 115 178 272t63 342q0 171 -68 316q-69 146 -190 254t-275 166q-153 58 -321 58q-167 0 -320 -58q-155 -59 -276 -166q-120 -106 -189 -254q-69 -147 -69 -316zM459 1794l151 -172 l295 227l295 -227l158 172l-453 336zM471 799q0 79 34 151q35 75 95 132q63 60 140 92t167 32q91 0 168 -32q79 -33 140 -91t95 -132q33 -72 33 -152q0 -103 -33 -183q-34 -83 -95 -147q-59 -62 -140 -97q-78 -34 -168 -34t-168 34q-81 35 -140 97t-94 147q-34 83 -34 183z " />
<glyph unicode="&#xd5;" horiz-adv-x="1816" d="M53 801q0 -183 64 -341t178 -272t272 -177q155 -62 340 -62t340 62q162 65 273 176q115 115 178 272t63 342q0 171 -68 316q-69 146 -190 254t-275 166q-153 58 -321 58q-167 0 -320 -58q-155 -59 -276 -166q-120 -106 -189 -254q-69 -147 -69 -316zM471 799q0 79 34 151 q35 75 95 132q63 60 140 92t167 32q91 0 168 -32q79 -33 140 -91t95 -132q33 -72 33 -152q0 -103 -33 -183q-34 -83 -95 -147q-59 -62 -140 -97q-78 -34 -168 -34t-168 34q-81 35 -140 97t-94 147q-34 83 -34 183zM500 1716l2 -22h168l2 8q11 34 23 50q13 17 44 17 q52 0 150 -36q108 -39 162 -39q61 0 110 28q47 27 82 76q32 45 51 105q19 59 23 114h-174q-15 -38 -31 -56q-16 -17 -51 -17q-43 0 -148 32q-69 18 -106 27q-41 10 -80 10q-55 0 -104 -33q-50 -33 -78 -82q-45 -76 -45 -182z" />
<glyph unicode="&#xd6;" horiz-adv-x="1816" d="M53 801q0 -183 64 -341t178 -272t272 -177q155 -62 340 -62t340 62q162 65 273 176q115 115 178 272t63 342q0 171 -68 316q-69 146 -190 254t-275 166q-153 58 -321 58q-167 0 -320 -58q-155 -59 -276 -166q-120 -106 -189 -254q-69 -147 -69 -316zM444 1870 q0 -84 60 -143q59 -58 143 -58q85 0 143 58t58 143q0 81 -60 141t-141 60q-82 0 -143 -59q-60 -59 -60 -142zM471 799q0 79 34 151q35 75 95 132q63 60 140 92t167 32q91 0 168 -32q79 -33 140 -91t95 -132q33 -72 33 -152q0 -103 -33 -183q-34 -83 -95 -147 q-59 -62 -140 -97q-78 -34 -168 -34t-168 34q-81 35 -140 97t-94 147q-34 83 -34 183zM969 1870q0 -85 59 -143t143 -58q85 0 143 58t58 143q0 82 -59 141q-60 60 -142 60t-143 -59q-59 -58 -59 -142z" />
<glyph unicode="&#xd7;" d="M178 217l217 -217l307 307l308 -307l217 217l-307 307l305 310l-217 217l-306 -312l-307 312l-217 -217l309 -310z" />
<glyph unicode="&#xd8;" horiz-adv-x="1816" d="M43 82l160 -164l190 188q217 -157 514 -157q185 0 340 62q162 65 273 176q115 115 178 272t63 342q0 137 -45 259t-127 220l185 182l-160 164l-195 -190q-112 78 -242 118q-132 41 -270 41q-167 0 -320 -58q-155 -59 -276 -166q-120 -106 -189 -254q-69 -147 -69 -316 q0 -156 45 -291t129 -246zM471 799q0 79 34 151q35 75 95 132q63 60 140 92t167 32q119 0 219 -59l-594 -584q-61 101 -61 236zM690 397l600 588q53 -85 53 -186q0 -103 -33 -183q-34 -83 -95 -147q-59 -62 -140 -97q-78 -34 -168 -34q-123 0 -217 59z" />
<glyph unicode="&#xd9;" horiz-adv-x="1593" d="M123 676q0 -190 30 -317t132 -228q91 -91 227 -131q138 -41 285 -41q146 0 284 41t228 131q102 101 132 228q29 123 29 317v868h-401v-813q0 -99 -7 -163q-8 -70 -34 -127q-27 -59 -83 -94q-57 -36 -148 -36q-92 0 -149 36q-56 36 -83 95q-26 59 -34 127q-7 63 -7 162 v813h-401v-868zM498 1948l350 -310l166 121l-289 352z" />
<glyph unicode="&#xda;" horiz-adv-x="1593" d="M123 676q0 -190 30 -317t132 -228q91 -91 227 -131q138 -41 285 -41q146 0 284 41t228 131q102 101 132 228q29 123 29 317v868h-401v-813q0 -99 -7 -163q-8 -70 -34 -127q-27 -59 -83 -94q-57 -36 -148 -36q-92 0 -149 36q-56 36 -83 95q-26 59 -34 127q-7 63 -7 162 v813h-401v-868zM580 1759l165 -121l351 310l-228 163z" />
<glyph unicode="&#xdb;" horiz-adv-x="1593" d="M123 676q0 -190 30 -317t132 -228q91 -91 227 -131q138 -41 285 -41q146 0 284 41t228 131q102 101 132 228q29 123 29 317v868h-401v-813q0 -99 -7 -163q-8 -70 -34 -127q-27 -59 -83 -94q-57 -36 -148 -36q-92 0 -149 36q-56 36 -83 95q-26 59 -34 127q-7 63 -7 162 v813h-401v-868zM346 1794l152 -172l295 227l294 -227l158 172l-452 336z" />
<glyph unicode="&#xdc;" horiz-adv-x="1593" d="M123 676q0 -190 30 -317t132 -228q91 -91 227 -131q138 -41 285 -41q146 0 284 41t228 131q102 101 132 228q29 123 29 317v868h-401v-813q0 -99 -7 -163q-8 -70 -34 -127q-27 -59 -83 -94q-57 -36 -148 -36q-92 0 -149 36q-56 36 -83 95q-26 59 -34 127q-7 63 -7 162 v813h-401v-868zM332 1870q0 -85 59 -143t144 -58q84 0 142 58t58 143q0 82 -59 141q-60 60 -141 60q-83 0 -144 -59q-59 -58 -59 -142zM856 1870q0 -85 59 -143t144 -58q84 0 142 58q59 59 59 143q0 81 -60 141t-141 60q-83 0 -144 -59q-59 -58 -59 -142z" />
<glyph unicode="&#xdd;" horiz-adv-x="1462" d="M-39 1544l569 -803v-741h402v741l569 803h-481l-289 -420l-289 420h-481zM555 1759l166 -121l350 310l-227 163z" />
<glyph unicode="&#xde;" horiz-adv-x="1353" d="M131 0h401v266h228q267 0 407 128t140 397q0 254 -151 381q-150 126 -411 126h-213v246h-401v-1544zM532 590v385h68q80 0 121 -4q46 -4 85 -23q37 -18 60 -59t23 -111q0 -67 -24 -106q-25 -40 -63 -57q-36 -16 -84 -21q-39 -4 -118 -4h-68z" />
<glyph unicode="&#xdf;" horiz-adv-x="1333" d="M16 608h107v-608h373v1165q0 57 4 92q5 41 19 71q15 31 47 51t85 20q72 0 114 -42t42 -114q0 -84 -53 -125t-150 -41v-297q121 0 199 -69t78 -181q0 -115 -76 -181q-77 -66 -201 -66v-318h80q123 0 242 32q116 31 198 103q80 68 122 182t42 228q0 174 -74 274 q-74 99 -231 162q91 68 137 144q45 74 45 178q0 216 -145 334t-365 118q-120 0 -223 -32t-182 -103q-76 -67 -102 -161q-25 -91 -25 -218v-301h-107v-297z" />
<glyph unicode="&#xe0;" horiz-adv-x="1396" d="M47 526q0 -112 39 -214q38 -99 111 -180q73 -80 170 -123q100 -44 211 -44q98 0 184 39t133 113h4v-117h373v1051h-373v-103q-58 69 -144 103t-182 34q-114 0 -211 -44q-95 -43 -167 -121q-73 -79 -110 -180q-38 -103 -38 -214zM432 524q0 99 65 169q65 69 175 69 t175 -69q64 -68 64 -169q0 -104 -64 -169q-65 -66 -175 -66t-175 66q-65 67 -65 169zM440 1516l351 -310l165 121l-288 352z" />
<glyph unicode="&#xe1;" horiz-adv-x="1396" d="M47 526q0 -112 39 -214q38 -99 111 -180q73 -80 170 -123q100 -44 211 -44q98 0 184 39t133 113h4v-117h373v1051h-373v-103q-58 69 -144 103t-182 34q-114 0 -211 -44q-95 -43 -167 -121q-73 -79 -110 -180q-38 -103 -38 -214zM432 524q0 99 65 169q65 69 175 69 t175 -69q64 -68 64 -169q0 -104 -64 -169q-65 -66 -175 -66t-175 66q-65 67 -65 169zM481 1327l166 -121l350 310l-227 163z" />
<glyph unicode="&#xe2;" horiz-adv-x="1396" d="M47 526q0 -112 39 -214q38 -99 111 -180q73 -80 170 -123q100 -44 211 -44q98 0 184 39t133 113h4v-117h373v1051h-373v-103q-58 69 -144 103t-182 34q-114 0 -211 -44q-95 -43 -167 -121q-73 -79 -110 -180q-38 -103 -38 -214zM248 1362l151 -172l295 227l295 -227 l158 172l-453 336zM432 524q0 99 65 169q65 69 175 69t175 -69q64 -68 64 -169q0 -104 -64 -169q-65 -66 -175 -66t-175 66q-65 67 -65 169z" />
<glyph unicode="&#xe3;" horiz-adv-x="1396" d="M47 526q0 -112 39 -214q38 -99 111 -180q73 -80 170 -123q100 -44 211 -44q98 0 184 39t133 113h4v-117h373v1051h-373v-103q-58 69 -144 103t-182 34q-114 0 -211 -44q-95 -43 -167 -121q-73 -79 -110 -180q-38 -103 -38 -214zM291 1284l2 -22h168l2 8q11 34 23 50 q13 17 44 17q49 0 150 -37q105 -38 162 -38q61 0 110 28q47 27 82 76q33 46 51 104q19 59 23 115h-174q-15 -38 -31 -56q-17 -18 -51 -18q-39 0 -147 33q-57 15 -107 27q-41 10 -80 10q-54 0 -104 -33t-78 -82q-45 -76 -45 -182zM432 524q0 99 65 169q65 69 175 69t175 -69 q64 -68 64 -169q0 -104 -64 -169q-65 -66 -175 -66t-175 66q-65 67 -65 169z" />
<glyph unicode="&#xe4;" horiz-adv-x="1396" d="M47 526q0 -112 39 -214q38 -99 111 -180q73 -80 170 -123q100 -44 211 -44q98 0 184 39t133 113h4v-117h373v1051h-373v-103q-58 69 -144 103t-182 34q-114 0 -211 -44q-95 -43 -167 -121q-73 -79 -110 -180q-38 -103 -38 -214zM233 1438q0 -84 60 -143q59 -58 143 -58 q85 0 143 58t58 143q0 82 -59 141t-142 59q-84 0 -143 -58q-60 -58 -60 -142zM432 524q0 99 65 169q65 69 175 69t175 -69q64 -68 64 -169q0 -104 -64 -169q-65 -66 -175 -66t-175 66q-65 67 -65 169zM758 1438q0 -85 59 -143t144 -58q84 0 142 58t58 143q0 82 -59 141 t-141 59q-85 0 -144 -58t-59 -142z" />
<glyph unicode="&#xe5;" horiz-adv-x="1396" d="M47 526q0 -112 39 -214q38 -99 111 -180q73 -80 170 -123q100 -44 211 -44q98 0 184 39t133 113h4v-117h373v1051h-373v-103q-58 69 -144 103t-182 34q-114 0 -211 -44q-95 -43 -167 -121q-73 -79 -110 -180q-38 -103 -38 -214zM385 1432q0 -64 27 -110q27 -47 72 -73 q46 -27 102 -39t116 -12q62 0 115 13q54 13 99 41q43 27 71 73q27 45 27 109q0 62 -27 109q-28 48 -73 74q-50 29 -101 40q-55 12 -117 12q-60 0 -115 -13q-57 -13 -101 -41q-43 -27 -69 -74t-26 -109zM432 524q0 99 65 169q65 69 175 69t175 -69q64 -68 64 -169 q0 -104 -64 -169q-65 -66 -175 -66t-175 66q-65 67 -65 169zM580 1434q0 46 35 66q38 22 85 22q45 0 83 -22q36 -21 36 -66q0 -46 -36 -67t-83 -21q-49 0 -85 21q-35 20 -35 67z" />
<glyph unicode="&#xe6;" horiz-adv-x="1925" d="M43 303q0 -84 39 -147q40 -64 103 -107q60 -41 143 -63q78 -21 155 -21q124 0 237 55q111 54 189 152q23 -55 70 -97q46 -42 103 -65q60 -25 122 -35q60 -10 127 -10q191 0 342 92q149 91 193 269h-359q-58 -97 -178 -97q-233 0 -233 234h784v39q0 272 -151 427 q-151 156 -424 156q-120 0 -228 -48t-168 -138q-51 100 -158 143t-237 43q-74 0 -146 -13q-75 -14 -159 -36v-278q83 27 156 43q63 14 137 14q108 0 179 -42t71 -142v-31q-70 29 -136 41t-141 12q-90 0 -164 -20q-78 -21 -138 -63q-61 -43 -95 -109q-35 -68 -35 -158z M406 334q0 58 48 85t107 27q25 0 63 -5q33 -4 65 -18q31 -13 51 -36t20 -55q0 -28 -20 -51q-20 -24 -49 -35q-35 -14 -60 -19q-30 -6 -58 -6q-61 0 -115 28q-52 27 -52 85zM1108 678q16 79 77 123q59 43 144 43q78 0 137 -46t74 -120h-432z" />
<glyph unicode="&#xe7;" horiz-adv-x="989" d="M47 514q0 -116 45 -218t124 -175q82 -76 183 -115q106 -41 219 -41q144 0 263 60v315q-36 -32 -87 -52t-100 -20q-113 0 -188 73q-74 72 -74 185q0 109 74 183q73 73 182 73q52 0 99 -19q50 -20 94 -54v315q-110 61 -246 61q-122 0 -231 -41q-107 -40 -187 -117 q-79 -76 -125 -183q-45 -105 -45 -230zM260 -385l160 -100l309 292l-203 132z" />
<glyph unicode="&#xe8;" horiz-adv-x="1249" d="M45 524q0 -264 169 -411q171 -148 439 -148q191 0 342 92q149 91 193 269h-359q-58 -97 -178 -97q-233 0 -233 234h784v39q0 272 -151 427q-152 156 -424 156q-128 0 -235 -37q-105 -36 -185 -112q-78 -74 -120 -178q-42 -105 -42 -234zM315 1516l351 -310l165 121 l-288 352zM424 678q16 79 77 123q59 43 144 43q78 0 137 -46t74 -120h-432z" />
<glyph unicode="&#xe9;" horiz-adv-x="1249" d="M45 524q0 -264 169 -411q171 -148 439 -148q191 0 342 92q149 91 193 269h-359q-58 -97 -178 -97q-233 0 -233 234h784v39q0 272 -151 427q-152 156 -424 156q-128 0 -235 -37q-105 -36 -185 -112q-78 -74 -120 -178q-42 -105 -42 -234zM418 1327l166 -121l350 310 l-227 163zM424 678q16 79 77 123q59 43 144 43q78 0 137 -46t74 -120h-432z" />
<glyph unicode="&#xea;" horiz-adv-x="1249" d="M45 524q0 -264 169 -411q171 -148 439 -148q191 0 342 92q149 91 193 269h-359q-58 -97 -178 -97q-233 0 -233 234h784v39q0 272 -151 427q-152 156 -424 156q-128 0 -235 -37q-105 -36 -185 -112q-78 -74 -120 -178q-42 -105 -42 -234zM174 1362l152 -172l295 227 l294 -227l158 172l-452 336zM424 678q16 79 77 123q59 43 144 43q78 0 137 -46t74 -120h-432z" />
<glyph unicode="&#xeb;" horiz-adv-x="1249" d="M45 524q0 -264 169 -411q171 -148 439 -148q191 0 342 92q149 91 193 269h-359q-58 -97 -178 -97q-233 0 -233 234h784v39q0 272 -151 427q-152 156 -424 156q-128 0 -235 -37q-105 -36 -185 -112q-78 -74 -120 -178q-42 -105 -42 -234zM160 1438q0 -85 59 -143t143 -58 q85 0 143 58t58 143q0 82 -59 141t-142 59q-84 0 -143 -58t-59 -142zM424 678q16 79 77 123q59 43 144 43q78 0 137 -46t74 -120h-432zM684 1438q0 -85 59 -143t144 -58q84 0 142 58t58 143q0 82 -59 141t-141 59q-85 0 -144 -58t-59 -142z" />
<glyph unicode="&#xec;" horiz-adv-x="618" d="M20 1516l351 -310l166 121l-289 352zM123 0h373v1051h-373v-1051z" />
<glyph unicode="&#xed;" horiz-adv-x="618" d="M82 1327l166 -121l350 310l-227 163zM123 0h373v1051h-373v-1051z" />
<glyph unicode="&#xee;" horiz-adv-x="618" d="M-141 1362l151 -172l295 227l295 -227l158 172l-453 336zM123 0h373v1051h-373v-1051z" />
<glyph unicode="&#xef;" horiz-adv-x="618" d="M-156 1438q0 -84 60 -143q59 -58 143 -58t142 58q59 59 59 143q0 81 -60 141q-59 59 -141 59q-84 0 -143 -58q-60 -58 -60 -142zM123 0h373v1051h-373v-1051zM369 1438q0 -85 59 -143t143 -58q85 0 143 58t58 143q0 82 -59 141t-142 59q-84 0 -143 -58t-59 -142z" />
<glyph unicode="&#xf0;" horiz-adv-x="1355" d="M45 522q0 -139 57 -247q55 -105 151 -176q90 -67 202 -101q108 -33 211 -33q125 0 241 38q115 38 206 117q92 80 144 202q54 127 54 286q0 142 -40 259q-39 115 -110 215q-69 98 -152 179q-79 78 -204 181l213 112l-133 150l-260 -137q-9 6 -25 16t-22 14q-12 8 -56 32 q-22 12 -84 43q-57 29 -137 65l-217 -213q114 -50 231 -123l-223 -119l135 -145l267 141q61 -48 122 -109q64 -64 109 -120q-69 12 -121 12q-106 0 -204 -37q-100 -38 -180 -106q-81 -69 -128 -172t-47 -224zM438 524q0 99 65 169q65 69 175 69t175 -69q65 -70 65 -169 q0 -102 -65 -169q-65 -66 -175 -66t-175 66q-65 67 -65 169z" />
<glyph unicode="&#xf1;" horiz-adv-x="1353" d="M123 0h373v545q0 111 45 177t149 66q56 0 91 -21q33 -20 50 -58q18 -40 22 -84q5 -52 5 -113v-512h373v649q0 205 -96 321q-96 115 -299 115q-116 0 -193 -38q-79 -39 -143 -132h-4v136h-373v-1051zM268 1284l2 -22h168l2 8q10 31 24 50q13 17 44 17q48 0 149 -37 q105 -38 162 -38q62 0 111 28q47 27 82 76q33 46 51 104q17 55 22 115h-174q-15 -40 -30 -56q-17 -18 -52 -18q-39 0 -147 33q-57 15 -107 27q-41 10 -79 10q-56 0 -105 -33q-50 -33 -78 -82q-45 -76 -45 -182z" />
<glyph unicode="&#xf2;" horiz-adv-x="1355" d="M45 524q0 -129 50 -235q49 -105 138 -177q89 -73 203 -110q112 -37 242 -37q126 0 243 38q114 37 202 110q89 74 138 177q50 106 50 234q0 131 -50 237q-49 104 -139 177t-202 110t-242 37t-242 -37q-114 -37 -203 -110q-89 -72 -138 -177q-50 -106 -50 -237zM369 1516 l350 -310l166 121l-289 352zM438 524q0 99 65 169q65 69 175 69t175 -69q65 -70 65 -169q0 -102 -65 -169q-65 -66 -175 -66t-175 66q-65 67 -65 169z" />
<glyph unicode="&#xf3;" horiz-adv-x="1355" d="M45 524q0 -129 50 -235q49 -105 138 -177q89 -73 203 -110q112 -37 242 -37q126 0 243 38q114 37 202 110q89 74 138 177q50 106 50 234q0 131 -50 237q-49 104 -139 177t-202 110t-242 37t-242 -37q-114 -37 -203 -110q-89 -72 -138 -177q-50 -106 -50 -237zM438 524 q0 99 65 169q65 69 175 69t175 -69q65 -70 65 -169q0 -102 -65 -169q-65 -66 -175 -66t-175 66q-65 67 -65 169zM471 1327l166 -121l350 310l-227 163z" />
<glyph unicode="&#xf4;" horiz-adv-x="1355" d="M45 524q0 -129 50 -235q49 -105 138 -177q89 -73 203 -110q112 -37 242 -37q126 0 243 38q114 37 202 110q89 74 138 177q50 106 50 234q0 131 -50 237q-49 104 -139 177t-202 110t-242 37t-242 -37q-114 -37 -203 -110q-89 -72 -138 -177q-50 -106 -50 -237zM227 1362 l152 -172l295 227l295 -227l157 172l-452 336zM438 524q0 99 65 169q65 69 175 69t175 -69q65 -70 65 -169q0 -102 -65 -169q-65 -66 -175 -66t-175 66q-65 67 -65 169z" />
<glyph unicode="&#xf5;" horiz-adv-x="1355" d="M45 524q0 -129 50 -235q49 -105 138 -177q89 -73 203 -110q112 -37 242 -37q126 0 243 38q114 37 202 110q89 74 138 177q50 106 50 234q0 131 -50 237q-49 104 -139 177t-202 110t-242 37t-242 -37q-114 -37 -203 -110q-89 -72 -138 -177q-50 -106 -50 -237zM270 1284 l2 -22h168l2 8q10 31 24 50q13 17 44 17q48 0 149 -37q105 -38 162 -38q62 0 111 28q47 27 82 76q33 46 51 104q17 55 22 115h-174q-15 -40 -30 -56q-17 -18 -52 -18q-39 0 -147 33q-69 18 -106 27q-41 10 -80 10q-56 0 -105 -33q-50 -33 -78 -82q-45 -76 -45 -182zM438 524 q0 99 65 169q65 69 175 69t175 -69q65 -70 65 -169q0 -102 -65 -169q-65 -66 -175 -66t-175 66q-65 67 -65 169z" />
<glyph unicode="&#xf6;" horiz-adv-x="1355" d="M45 524q0 -129 50 -235q49 -105 138 -177q89 -73 203 -110q112 -37 242 -37q126 0 243 38q114 37 202 110q89 74 138 177q50 106 50 234q0 131 -50 237q-49 104 -139 177t-202 110t-242 37t-242 -37q-114 -37 -203 -110q-89 -72 -138 -177q-50 -106 -50 -237zM213 1438 q0 -85 59 -143t144 -58q84 0 142 58t58 143q0 82 -59 141t-141 59q-85 0 -144 -58t-59 -142zM438 524q0 99 65 169q65 69 175 69t175 -69q65 -70 65 -169q0 -102 -65 -169q-65 -66 -175 -66t-175 66q-65 67 -65 169zM737 1438q0 -84 60 -143q59 -58 143 -58t142 58 q59 59 59 143q0 81 -60 141q-59 59 -141 59q-84 0 -143 -58q-60 -58 -60 -142z" />
<glyph unicode="&#xf7;" d="M178 373h1049v307h-1049v-307zM555 113q0 -62 43 -105t104 -43q62 0 105 43t43 105q0 61 -43 104t-105 43q-61 0 -104 -43t-43 -104zM555 940q0 -61 43 -104t104 -43q62 0 105 43t43 104t-43 104t-105 43q-61 0 -104 -43t-43 -104z" />
<glyph unicode="&#xf8;" horiz-adv-x="1355" d="M43 33l143 -129l146 143q151 -82 346 -82q126 0 243 38q114 37 202 110q89 74 138 177q50 106 50 234q0 212 -133 361l135 135l-144 127l-145 -143q-150 81 -346 81q-130 0 -242 -37q-114 -37 -203 -110q-89 -72 -138 -177q-50 -106 -50 -237q0 -213 133 -358zM438 524 q0 99 65 169q65 69 175 69q47 0 88 -14l-313 -310q-15 34 -15 86zM590 303l313 309q15 -40 15 -88q0 -102 -65 -169q-65 -66 -175 -66q-53 0 -88 14z" />
<glyph unicode="&#xf9;" horiz-adv-x="1349" d="M117 418q0 -127 42 -214t116 -139t177 -76q102 -24 224 -24t224 24q103 24 176 74q75 51 117 140q42 88 42 215v633h-373v-562q0 -110 -40 -168q-41 -59 -146 -59q-106 0 -147 59q-40 58 -40 168v562h-372v-633zM356 1516l351 -310l165 121l-288 352z" />
<glyph unicode="&#xfa;" horiz-adv-x="1349" d="M117 418q0 -127 42 -214t116 -139t177 -76q102 -24 224 -24t224 24q103 24 176 74q75 51 117 140q42 88 42 215v633h-373v-562q0 -110 -40 -168q-41 -59 -146 -59q-106 0 -147 59q-40 58 -40 168v562h-372v-633zM479 1327l166 -121l350 310l-227 163z" />
<glyph unicode="&#xfb;" horiz-adv-x="1349" d="M117 418q0 -127 42 -214t116 -139t177 -76q102 -24 224 -24t224 24q103 24 176 74q75 51 117 140q42 88 42 215v633h-373v-562q0 -110 -40 -168q-41 -59 -146 -59q-106 0 -147 59q-40 58 -40 168v562h-372v-633zM225 1362l152 -172l295 227l295 -227l157 172l-452 336z " />
<glyph unicode="&#xfc;" horiz-adv-x="1349" d="M117 418q0 -127 42 -214t116 -139t177 -76q102 -24 224 -24t224 24q103 24 176 74q75 51 117 140q42 88 42 215v633h-373v-562q0 -110 -40 -168q-41 -59 -146 -59q-106 0 -147 59q-40 58 -40 168v562h-372v-633zM211 1438q0 -85 59 -143t144 -58q84 0 142 58t58 143 q0 82 -59 141t-141 59q-85 0 -144 -58t-59 -142zM735 1438q0 -84 60 -143q59 -58 143 -58t142 58q59 59 59 143q0 81 -60 141q-59 59 -141 59q-84 0 -143 -58q-60 -58 -60 -142z" />
<glyph unicode="&#xfd;" horiz-adv-x="1339" d="M-31 1051l508 -908l-358 -667h418l841 1575h-424l-274 -539l-281 539h-430zM494 1327l165 -121l351 310l-228 163z" />
<glyph unicode="&#xfe;" horiz-adv-x="1396" d="M111 -524h372v624q56 -65 145 -100q88 -35 181 -35q116 0 212 43q98 44 168 121q71 79 108 179q38 103 38 214q0 113 -39 215q-40 104 -109 182t-169 122t-213 44q-99 0 -182 -38q-87 -40 -136 -115h-4v768h-372v-2224zM471 524q0 99 65 169q64 69 175 69t175 -69 q64 -68 64 -169q0 -104 -64 -169q-64 -66 -175 -66t-175 66q-65 67 -65 169z" />
<glyph unicode="&#xff;" horiz-adv-x="1339" d="M-31 1051l508 -908l-358 -667h418l841 1575h-424l-274 -539l-281 539h-430zM236 1438q0 -85 59 -143t143 -58q85 0 143 58t58 143q0 82 -59 141t-142 59q-84 0 -143 -58t-59 -142zM760 1438q0 -85 59 -143t144 -58q84 0 142 58t58 143q0 82 -59 141t-141 59 q-85 0 -144 -58t-59 -142z" />
<glyph unicode="&#x152;" horiz-adv-x="2334" d="M53 772q0 -159 64 -311q62 -147 175 -265q111 -116 259 -182q145 -65 309 -65q148 0 268 53q117 52 224 168v-170h868v340h-469v266h436v340h-436v258h469v340h-868v-141q-192 192 -492 192q-164 0 -309 -65q-150 -67 -259 -181q-112 -117 -175 -266q-64 -152 -64 -311z M471 772q0 89 34 167q35 81 93 139q60 60 138 94t167 34q90 0 167 -32q76 -32 138 -95q59 -60 92 -140t33 -167t-33 -167t-92 -139q-60 -60 -138 -94t-167 -34t-167 34t-138 94q-58 58 -93 139q-34 78 -34 167z" />
<glyph unicode="&#x153;" horiz-adv-x="2093" d="M43 524q0 -132 45 -237q44 -103 128 -176q81 -71 194 -109q110 -37 239 -37q139 0 239 41q98 40 187 141q68 -97 175 -140q105 -42 251 -42q191 0 342 92q149 91 193 269h-359q-58 -97 -178 -97q-233 0 -233 234h784v39q0 272 -151 427q-151 156 -424 156 q-128 0 -230 -36q-108 -38 -170 -121q-91 88 -192 123q-99 34 -238 34q-128 0 -236 -37q-109 -37 -193 -112t-128 -178q-45 -105 -45 -234zM436 524q0 96 71 167t169 71t169 -71q70 -70 70 -167q0 -98 -70 -167q-69 -68 -169 -68t-169 68q-71 69 -71 167zM1266 678 q17 80 76 123t145 43q78 0 137 -46t74 -120h-432z" />
<glyph unicode="&#x178;" horiz-adv-x="1462" d="M-39 1544l569 -803v-741h402v741l569 803h-481l-289 -420l-289 420h-481zM287 1870q0 -85 59 -143t143 -58q85 0 143 58t58 143q0 82 -59 141q-60 60 -142 60t-143 -59q-59 -58 -59 -142zM811 1870q0 -85 59 -143t144 -58q84 0 142 58t58 143q0 82 -59 141 q-60 60 -141 60q-83 0 -144 -59q-59 -58 -59 -142z" />
<glyph unicode="&#x2c6;" horiz-adv-x="1208" d="M154 1362l151 -172l295 227l295 -227l158 172l-453 336z" />
<glyph unicode="&#x2dc;" horiz-adv-x="1124" d="M154 1284l2 -22h168l2 8q11 34 23 50q13 17 44 17q49 0 150 -37q105 -38 162 -38q61 0 110 28q47 27 82 76q33 46 51 104q19 59 23 115h-174q-15 -38 -31 -56t-51 -18q-40 0 -148 33q-69 18 -106 27q-41 10 -80 10q-55 0 -105 -33q-48 -32 -77 -82q-45 -76 -45 -182z" />
<glyph unicode="&#x2000;" horiz-adv-x="1065" />
<glyph unicode="&#x2001;" horiz-adv-x="2130" />
<glyph unicode="&#x2002;" horiz-adv-x="1065" />
<glyph unicode="&#x2003;" horiz-adv-x="2130" />
<glyph unicode="&#x2004;" horiz-adv-x="710" />
<glyph unicode="&#x2005;" horiz-adv-x="532" />
<glyph unicode="&#x2006;" horiz-adv-x="355" />
<glyph unicode="&#x2007;" horiz-adv-x="355" />
<glyph unicode="&#x2008;" horiz-adv-x="266" />
<glyph unicode="&#x2009;" horiz-adv-x="426" />
<glyph unicode="&#x200a;" horiz-adv-x="118" />
<glyph unicode="&#x2010;" horiz-adv-x="802" d="M109 504h585v307h-585v-307z" />
<glyph unicode="&#x2011;" horiz-adv-x="802" d="M109 504h585v307h-585v-307z" />
<glyph unicode="&#x2012;" horiz-adv-x="802" d="M109 504h585v307h-585v-307z" />
<glyph unicode="&#x2013;" horiz-adv-x="1024" d="M0 504h1024v307h-1024v-307z" />
<glyph unicode="&#x2014;" horiz-adv-x="2048" d="M266 504h1516v307h-1516v-307z" />
<glyph unicode="&#x2018;" horiz-adv-x="761" d="M39 866h348l266 678h-237z" />
<glyph unicode="&#x2019;" horiz-adv-x="761" d="M109 866h237l377 678h-348z" />
<glyph unicode="&#x201a;" horiz-adv-x="692" d="M39 -287h237l377 678h-348z" />
<glyph unicode="&#x201c;" horiz-adv-x="1286" d="M39 866h348l266 678h-237zM563 866h348l267 678h-238z" />
<glyph unicode="&#x201d;" horiz-adv-x="1286" d="M109 866h237l377 678h-348zM633 866h237l377 678h-348z" />
<glyph unicode="&#x201e;" horiz-adv-x="1216" d="M39 -287h237l377 678h-348zM563 -287h238l377 678h-349z" />
<glyph unicode="&#x2022;" d="M317 772q0 -76 29 -148q29 -71 82 -124t124 -83q70 -30 153 -30q81 0 152 30q70 30 123 83q52 52 81 124t29 148q0 79 -29 151t-81 124t-123 82t-152 30q-83 0 -153 -30q-73 -31 -124 -82q-53 -51 -82 -124q-29 -72 -29 -151z" />
<glyph unicode="&#x2026;" horiz-adv-x="2048" d="M102 199q0 -97 70 -169q69 -71 170 -71t170 71q70 72 70 169q0 100 -70 170q-69 69 -170 69t-170 -69q-70 -70 -70 -170zM784 199q0 -97 70 -169q69 -71 170 -71t170 71q70 72 70 169q0 100 -70 170q-69 69 -170 69t-170 -69q-70 -70 -70 -170zM1466 199q0 -97 70 -169 q69 -71 170 -71t170 71q70 72 70 169q0 100 -70 170q-69 69 -170 69t-170 -69q-70 -70 -70 -170z" />
<glyph unicode="&#x202f;" horiz-adv-x="426" />
<glyph unicode="&#x2039;" horiz-adv-x="724" d="M53 655l353 -503l210 147l-264 356l258 363l-204 141z" />
<glyph unicode="&#x203a;" horiz-adv-x="724" d="M109 299l210 -147l353 503l-353 504l-204 -141l258 -363z" />
<glyph unicode="&#x205f;" horiz-adv-x="532" />
<glyph unicode="&#x2122;" horiz-adv-x="1925" d="M84 1384h252v-667h199v667h251v160h-702v-160zM887 717h180v667h4l240 -667h106l240 667h4v-667h180v827h-291l-186 -489l-186 489h-291v-827z" />
<glyph unicode="&#x25fc;" horiz-adv-x="1054" d="M0 0v1055h1055v-1055h-1055z" />
</font>
</defs>
</svg>
